# Thunder Tank low-poly tank-turret
# Generated by scripts/generate-tank-model.mjs — do not edit by hand.
mtllib tank-turret.mtl
o tank-turret
v -0.34000 0.52000 -0.34000
v 0.34000 0.52000 -0.34000
v 0.34000 0.52000 0.30000
v -0.34000 0.52000 0.30000
v -0.34000 0.82000 -0.34000
v 0.34000 0.82000 -0.34000
v 0.34000 0.82000 0.30000
v -0.34000 0.82000 0.30000
v -0.08000 0.60000 -1.18000
v 0.08000 0.60000 -1.18000
v 0.08000 0.60000 -0.30000
v -0.08000 0.60000 -0.30000
v -0.08000 0.74000 -1.18000
v 0.08000 0.74000 -1.18000
v 0.08000 0.74000 -0.30000
v -0.08000 0.74000 -0.30000
usemtl turret
f 5 6 7
f 5 7 8
f 4 3 2
f 4 2 1
f 1 2 6
f 1 6 5
f 3 4 8
f 3 8 7
f 4 1 5
f 4 5 8
f 2 3 7
f 2 7 6
usemtl barrel
f 13 14 15
f 13 15 16
f 12 11 10
f 12 10 9
f 9 10 14
f 9 14 13
f 11 12 16
f 11 16 15
f 12 9 13
f 12 13 16
f 10 11 15
f 10 15 14
