# Thunder Tank low-poly tank-hull
# Generated by scripts/generate-tank-model.mjs — do not edit by hand.
mtllib tank-hull.mtl
o tank-hull
v -0.50000 0.10000 -0.85000
v 0.50000 0.10000 -0.85000
v 0.50000 0.10000 0.85000
v -0.50000 0.10000 0.85000
v -0.50000 0.42000 -0.85000
v 0.50000 0.42000 -0.85000
v 0.50000 0.42000 0.85000
v -0.50000 0.42000 0.85000
v -0.42000 0.42000 -0.68000
v 0.42000 0.42000 -0.68000
v 0.42000 0.42000 0.60000
v -0.42000 0.42000 0.60000
v -0.42000 0.52000 -0.68000
v 0.42000 0.52000 -0.68000
v 0.42000 0.52000 0.60000
v -0.42000 0.52000 0.60000
v -0.64000 0.00000 -0.92000
v -0.42000 0.00000 -0.92000
v -0.42000 0.00000 0.92000
v -0.64000 0.00000 0.92000
v -0.64000 0.34000 -0.92000
v -0.42000 0.34000 -0.92000
v -0.42000 0.34000 0.92000
v -0.64000 0.34000 0.92000
v 0.42000 0.00000 -0.92000
v 0.64000 0.00000 -0.92000
v 0.64000 0.00000 0.92000
v 0.42000 0.00000 0.92000
v 0.42000 0.34000 -0.92000
v 0.64000 0.34000 -0.92000
v 0.64000 0.34000 0.92000
v 0.42000 0.34000 0.92000
usemtl hull
f 5 6 7
f 5 7 8
f 4 3 2
f 4 2 1
f 1 2 6
f 1 6 5
f 3 4 8
f 3 8 7
f 4 1 5
f 4 5 8
f 2 3 7
f 2 7 6
f 13 14 15
f 13 15 16
f 12 11 10
f 12 10 9
f 9 10 14
f 9 14 13
f 11 12 16
f 11 16 15
f 12 9 13
f 12 13 16
f 10 11 15
f 10 15 14
usemtl tread
f 21 22 23
f 21 23 24
f 20 19 18
f 20 18 17
f 17 18 22
f 17 22 21
f 19 20 24
f 19 24 23
f 20 17 21
f 20 21 24
f 18 19 23
f 18 23 22
f 29 30 31
f 29 31 32
f 28 27 26
f 28 26 25
f 25 26 30
f 25 30 29
f 27 28 32
f 27 32 31
f 28 25 29
f 28 29 32
f 26 27 31
f 26 31 30
