# Thunder Tank low-poly urban tree
# Generated by scripts/generate-tree-model.mjs — do not edit by hand.
mtllib tree.mtl
o Tree
v 0.20000 0.00000 0.00000
v 0.20000 2.30000 0.00000
v 0.10000 0.00000 0.17321
v 0.10000 2.30000 0.17321
v -0.10000 0.00000 0.17321
v -0.10000 2.30000 0.17321
v -0.20000 0.00000 0.00000
v -0.20000 2.30000 0.00000
v -0.10000 0.00000 -0.17321
v -0.10000 2.30000 -0.17321
v 0.10000 0.00000 -0.17321
v 0.10000 2.30000 -0.17321
v 0.00000 3.60000 0.00000
v 0.95000 2.20000 0.00000
v 0.67175 2.20000 0.67175
v 0.00000 2.20000 0.95000
v -0.67175 2.20000 0.67175
v -0.95000 2.20000 0.00000
v -0.67175 2.20000 -0.67175
v -0.00000 2.20000 -0.95000
v 0.67175 2.20000 -0.67175
v 0.00000 2.20000 0.00000
v 0.00000 2.20000 0.00000
v 0.00000 2.20000 0.00000
v 0.00000 2.20000 0.00000
v 0.00000 2.20000 0.00000
v 0.00000 2.20000 0.00000
v 0.00000 2.20000 0.00000
v 0.00000 2.20000 0.00000
v 0.00000 4.30000 0.00000
v 0.68000 2.95000 0.00000
v 0.48083 2.95000 0.48083
v 0.00000 2.95000 0.68000
v -0.48083 2.95000 0.48083
v -0.68000 2.95000 0.00000
v -0.48083 2.95000 -0.48083
v -0.00000 2.95000 -0.68000
v 0.48083 2.95000 -0.48083
v 0.00000 2.95000 0.00000
v 0.00000 2.95000 0.00000
v 0.00000 2.95000 0.00000
v 0.00000 2.95000 0.00000
v 0.00000 2.95000 0.00000
v 0.00000 2.95000 0.00000
v 0.00000 2.95000 0.00000
v 0.00000 2.95000 0.00000
usemtl trunk
f 1 3 4
f 1 4 2
f 3 5 6
f 3 6 4
f 5 7 8
f 5 8 6
f 7 9 10
f 7 10 8
f 9 11 12
f 9 12 10
f 11 1 2
f 11 2 12
usemtl canopy
f 14 13 15
f 14 15 22
f 15 13 16
f 15 16 23
f 16 13 17
f 16 17 24
f 17 13 18
f 17 18 25
f 18 13 19
f 18 19 26
f 19 13 20
f 19 20 27
f 20 13 21
f 20 21 28
f 21 13 14
f 21 14 29
f 31 30 32
f 31 32 39
f 32 30 33
f 32 33 40
f 33 30 34
f 33 34 41
f 34 30 35
f 34 35 42
f 35 30 36
f 35 36 43
f 36 30 37
f 36 37 44
f 37 30 38
f 37 38 45
f 38 30 31
f 38 31 46
